<svg width="220" height="48" viewBox="0 0 220 48" fill="none" xmlns="http://www.w3.org/2000/svg">
<rect width="220" height="48" rx="24" fill="white"/>
<path d="M47 22.5C47 24.1811 46.5015 25.8245 45.5675 27.2223C44.6335 28.6202 43.306 29.7096 41.7528 30.353C40.1996 30.9963 38.4906 31.1647 36.8417 30.8367C35.1929 30.5087 33.6783 29.6992 32.4896 28.5104C31.3009 27.3217 30.4913 25.8071 30.1633 24.1583C29.8354 22.5094 30.0037 20.8004 30.647 19.2472C31.2904 17.694 32.3798 16.3665 33.7777 15.4325C35.1755 14.4985 36.8189 14 38.5 14C40.7543 14 42.9164 14.8955 44.5104 16.4896C46.1045 18.0837 47 20.2457 47 22.5Z" stroke="#262626" stroke-width="2" stroke-linecap="round" stroke-linejoin="round"/>
<path d="M44.511 28.511L50 34" stroke="#262626" stroke-width="2" stroke-linecap="round" stroke-linejoin="round"/>
<path d="M72.67 19.15V19.808C72.67 22.006 70.892 23.756 67.742 24.638L68.316 25.786C72.026 24.75 74.21 22.44 74.21 19.15H72.67ZM68.414 19.15V20.326H73.678V19.15H68.414ZM76.772 18.366V25.604H78.242V18.366H76.772ZM74.252 21.544V22.748H77.01V21.544H74.252ZM69.912 26.136V31.008H78.242V26.136H69.912ZM76.8 27.298V29.832H71.354V27.298H76.8ZM83.0289 19.122V20.718C83.0289 22.174 82.1609 23.812 80.4389 24.582L81.2229 25.73C83.1969 24.848 84.1769 22.762 84.1769 20.718V19.122H83.0289ZM83.2809 19.122V20.718C83.2809 22.734 84.2329 24.596 86.1509 25.394L86.9209 24.274C85.2689 23.588 84.4429 22.16 84.4429 20.718V19.122H83.2809ZM89.9589 18.38V26.122H91.3449V18.38H89.9589ZM88.1249 21.6V22.804H90.3649V21.6H88.1249ZM87.2289 18.59V26.052H88.6009V18.59H87.2289ZM82.6789 26.752V27.942H89.8889V31.162H91.3449V26.752H82.6789Z" fill="black"/>
</svg>
