<svg width="220" height="92" viewBox="0 0 220 92" fill="none" xmlns="http://www.w3.org/2000/svg">
<rect width="220" height="92" rx="24" fill="white"/>
<rect width="220" height="73" rx="24" fill="white"/>
<path fill-rule="evenodd" clip-rule="evenodd" d="M17.2728 28.0945C15.1703 28.9735 12.8684 31.4476 12.1434 34.556C11.2191 38.4891 15.0525 40.1476 15.3697 39.6038C15.7322 38.9695 14.6809 38.752 14.4634 36.7038C14.1916 34.0757 15.415 31.1213 16.9556 29.8345C17.2456 29.5898 17.2275 29.9251 17.2275 30.5413L17.1731 43.6457C17.1731 46.4551 17.0553 47.3341 16.8469 48.2132C16.6384 49.1013 16.3031 49.6995 16.5478 49.9351C16.8378 50.1888 18.0703 49.5726 18.7772 48.5757C19.5849 47.3438 20.0047 45.898 19.9825 44.4251C20.0459 42.5582 20.0369 39.5948 20.0459 37.9091C20.0459 36.3685 20.0731 31.8282 20.0188 29.1004C20.0006 28.4298 18.1428 27.732 17.2728 28.1035V28.0945ZM91.7031 41.217C91.6742 42.3926 91.4027 43.5496 90.9056 44.6154C90.1353 46.1741 88.5222 46.6545 87.8334 44.416C87.4709 43.2016 87.4438 41.1626 87.7156 39.4588C87.9875 37.737 88.7488 36.4229 90.0084 36.5407C91.2591 36.6585 91.8391 38.2626 91.7031 41.217V41.217ZM70.7234 50.2613C70.7053 52.681 70.3247 54.8016 69.5091 55.427C68.34 56.297 66.7903 55.6354 67.1075 53.8682C67.3884 52.3095 68.7388 50.7145 70.7325 48.757L70.7234 50.2613V50.2613ZM70.4063 41.1988C70.3532 42.3771 70.0829 43.5354 69.6088 44.6154C68.8384 46.1741 67.2163 46.6545 66.5366 44.416C66.0834 42.8845 66.1922 40.9088 66.4188 39.6582C66.7178 38.0451 67.4338 36.5407 68.7116 36.5407C69.9622 36.5407 70.5784 37.9001 70.4063 41.1988V41.1988ZM58.2534 41.1807C58.2305 42.3707 57.9621 43.543 57.465 44.6245C56.6675 46.1651 55.0816 46.6545 54.3838 44.416C53.8853 42.812 54.0575 40.6098 54.2659 39.4316C54.5741 37.6645 55.3534 36.4229 56.5588 36.5316C57.8094 36.6585 58.4075 38.2535 58.2534 41.1807ZM113.943 42.821C113.643 42.821 113.498 43.1382 113.39 43.6638C112.991 45.4945 112.574 45.9113 112.03 45.9113C111.432 45.9113 110.888 45.0051 110.743 43.1926C110.635 41.7607 110.653 39.1326 110.798 36.5135C110.825 35.9788 110.671 35.4532 109.23 34.9276C108.614 34.701 107.708 34.3657 107.263 35.4532C106.366 37.5224 105.733 39.6964 105.378 41.9238C105.378 41.9782 105.306 41.9873 105.288 41.8695C105.224 41.081 105.052 39.6401 105.034 36.6223C105.034 36.0332 104.907 35.5348 104.255 35.127C103.829 34.8551 102.551 34.3929 102.08 34.9457C101.69 35.3988 101.228 36.6404 100.748 38.0995L100.077 40.0932L100.086 35.6707C100.086 35.2176 99.7778 35.0635 99.6781 35.0363C99.1464 34.8723 98.6002 34.76 98.0469 34.701C97.6119 34.701 97.5031 34.9457 97.5031 35.3082C97.5031 35.3535 97.4306 39.5223 97.4306 42.4404V42.8573C97.1859 44.1985 96.3975 46.0201 95.5366 46.0201C94.6756 46.0201 94.2678 45.2588 94.2678 41.7788C94.2678 39.7488 94.3313 38.8698 94.3584 37.4016C94.3766 36.5498 94.4128 35.9063 94.4128 35.7613C94.4038 35.3082 93.6244 35.0816 93.2619 34.991C92.8994 34.9095 92.5731 34.8732 92.3284 34.8913C91.9659 34.9095 91.7213 35.136 91.7213 35.4532V35.9516C91.3301 35.333 90.7479 34.8589 90.0628 34.6013C88.7578 34.2116 87.3984 34.556 86.3744 35.9879C85.4904 37.2523 84.9701 38.7349 84.87 40.2745C84.725 41.6338 84.7794 43.0023 85.0241 44.1713C84.725 45.4763 84.1541 46.0201 83.5378 46.0201C82.6406 46.0201 81.9972 44.552 82.0697 42.0326C82.1241 40.3651 82.4503 39.196 82.8128 37.5104C82.9669 36.7854 82.8491 36.4229 82.5319 36.0604C82.2419 35.7251 81.6256 35.5529 80.7284 35.7613C80.0941 35.9063 79.1878 36.0695 78.3722 36.1873C78.3722 36.1873 78.4175 35.997 78.4628 35.6435C78.6713 33.8038 76.6684 33.9488 76.025 34.5379C75.6444 34.8913 75.3906 35.2991 75.2819 36.0513C75.1278 37.2295 76.0975 37.7823 76.0975 37.7823C75.4747 40.1346 74.4308 42.3545 73.0163 44.3345V43.7001C73.0072 40.6551 73.0434 38.2626 73.0616 37.4016C73.0797 36.5498 73.1159 35.9245 73.1159 35.7704C73.1159 35.4441 72.9166 35.3173 72.5178 35.1632C72.1553 35.0182 71.7384 34.9276 71.3034 34.8913C70.7597 34.846 70.4244 35.136 70.4334 35.4804V35.9516C70.0405 35.331 69.4547 34.8566 68.7659 34.6013C67.4609 34.2116 66.1016 34.556 65.0775 35.9879C64.2252 37.265 63.7079 38.736 63.5731 40.2654C63.4372 41.6882 63.4553 42.8935 63.6547 43.9266C63.4463 44.9507 62.8481 46.011 62.1775 46.011C61.3166 46.011 60.8181 45.2588 60.8181 41.7788C60.8181 39.7488 60.8816 38.8698 60.9088 37.4016C60.9269 36.5498 60.9631 35.9063 60.9631 35.7613C60.9631 35.3082 60.1747 35.0816 59.8122 34.991C59.4316 34.9004 59.0963 34.8732 58.8516 34.9004C58.5163 34.9185 58.2806 35.2176 58.2806 35.4441V35.9516C57.8877 35.331 57.3019 34.8566 56.6131 34.6013C55.3081 34.2116 53.9578 34.5651 52.9247 35.9879C52.245 36.9213 51.7013 37.9545 51.4203 40.2473C51.3442 40.8605 51.3079 41.4781 51.3116 42.096C51.0397 43.7363 49.8525 45.6304 48.8828 45.6304C48.3119 45.6304 47.7681 44.5338 47.7681 42.1866C47.7681 39.0601 47.9675 34.6104 47.9947 34.1845L49.4628 34.1573C50.0791 34.1573 50.6319 34.1663 51.4475 34.121C51.8553 34.1029 52.245 32.6348 51.8281 32.4535C51.6378 32.372 50.2875 32.2995 49.7438 32.2904C49.2906 32.2813 48.04 32.1907 48.04 32.1907C48.04 32.1907 48.1578 29.2363 48.185 28.9282C48.2031 28.6563 47.8678 28.5295 47.6684 28.4479C47.2211 28.2679 46.7565 28.1342 46.2819 28.0491C45.5931 27.9132 45.285 28.0491 45.2216 28.6291C45.1309 29.5082 45.0856 32.091 45.0856 32.091C44.5781 32.091 42.8472 31.9913 42.3488 31.9913C41.8775 31.9913 41.37 34.0032 42.0225 34.0304L44.9225 34.112L44.8953 40.0298V40.4557C44.415 42.9298 42.7475 44.262 42.7475 44.262C43.11 42.6307 42.3669 41.4073 41.0528 40.3651C40.5634 39.9845 39.6028 39.2595 38.5244 38.462C38.5244 38.462 39.1497 37.8457 39.7025 36.6132C40.0922 35.7432 40.1103 34.7463 39.1497 34.5288C37.5638 34.1573 36.2497 35.3173 35.86 36.5679C35.7079 36.9727 35.6698 37.4115 35.7497 37.8365C35.8296 38.2615 36.0245 38.6565 36.3131 38.9785L36.4491 39.1507C36.0866 39.8395 35.5972 40.7638 35.1803 41.4888C34.0294 43.4826 33.1503 45.0685 32.4888 45.0685C31.9631 45.0685 31.9722 43.4645 31.9722 41.9601C31.9722 40.6641 32.0628 38.7157 32.1444 36.7038C32.1716 36.0332 31.8363 35.6526 31.2744 35.3082C30.8276 34.9991 30.3215 34.7862 29.7881 34.6829C29.1538 34.6829 27.3413 34.7735 25.6194 39.7307C25.4109 40.356 24.985 41.4888 24.985 41.4888L25.0213 35.5348C25.0213 35.3898 24.9488 35.2629 24.7766 35.1723C24.2357 34.8848 23.639 34.7178 23.0275 34.6829C22.7013 34.6829 22.5381 34.837 22.5381 35.136L22.4747 44.4704C22.4747 45.1773 22.4928 46.002 22.5653 46.3645C22.6378 46.727 22.7466 47.017 22.8916 47.1891C23.0275 47.3704 23.1906 47.4973 23.4534 47.5516C23.7072 47.606 25.0666 47.7782 25.1391 47.2616C25.2297 46.6363 25.2297 45.9657 25.9456 43.4554C27.0513 39.5495 28.5013 37.6373 29.19 36.9666C29.3078 36.8398 29.4438 36.8398 29.4347 37.0301L29.2353 41.8513C29.0541 46.7179 29.9422 47.6151 31.2019 47.6151C32.1716 47.6151 33.54 46.6545 35.0081 44.2257L37.455 40.1476L38.8869 41.4707C40.0469 42.5582 40.4275 43.6095 40.1738 44.5973C39.9834 45.3495 39.2494 46.1379 37.9625 45.3766C37.5819 45.1501 37.4188 44.9779 37.0472 44.7332C36.8388 44.5973 36.5306 44.552 36.3403 44.697C35.86 45.0595 35.5791 45.5307 35.425 46.1016C35.2709 46.6545 35.8328 46.9535 36.4128 47.2073C36.9113 47.4338 37.9897 47.6332 38.6784 47.6604C41.3428 47.751 43.4816 46.3735 44.9678 42.821C45.2397 45.8841 46.3725 47.6241 48.3391 47.6241C49.6531 47.6241 50.9763 45.9204 51.5563 44.2529C51.7194 44.9326 51.9641 45.5216 52.2813 46.0291C53.8038 48.4307 56.7491 47.9051 58.2263 45.866C58.6794 45.2407 58.7519 45.0141 58.7519 45.0141C58.7961 45.7003 59.0928 46.3457 59.5848 46.826C60.0768 47.3063 60.7293 47.5874 61.4163 47.6151C62.4131 47.6151 63.4372 47.1438 64.1622 45.5216C64.2438 45.7029 64.3434 45.866 64.4341 46.0291C65.9566 48.4307 68.9019 47.9051 70.3791 45.866L70.5603 45.6123L70.6056 46.881L69.2463 48.1226C66.9625 50.207 65.2225 51.7929 65.0956 53.6416C64.9325 55.9979 66.8447 56.8679 68.2947 56.9857C69.0199 57.0218 69.7417 56.8636 70.3853 56.5274C71.029 56.1913 71.5712 55.6893 71.9559 55.0735C72.6628 54.0313 73.1341 51.7838 73.0978 49.5635L73.0434 46.3373C75.2142 43.827 76.8818 40.9226 77.9553 37.7823C77.9553 37.7823 78.7981 37.7913 79.6953 37.737C79.9853 37.7188 80.0669 37.7732 80.0125 37.9816C79.9491 38.2354 78.8797 42.3679 79.8584 45.1229C80.5291 47.0079 82.0334 47.6151 82.9397 47.6151C83.9819 47.6151 84.9878 46.8266 85.5225 45.6485L85.7309 46.0291C87.2534 48.4307 90.1897 47.9051 91.6759 45.866C92.0113 45.4129 92.2016 45.0141 92.2016 45.0141C92.5278 47.0079 94.0775 47.6241 94.9656 47.6241C95.89 47.6241 96.7781 47.2435 97.485 45.5579C97.5122 46.301 97.5575 46.9082 97.63 47.0985C97.6753 47.2163 97.9381 47.3704 98.1375 47.4338C98.9803 47.742 99.8413 47.597 100.168 47.5335C100.385 47.4882 100.557 47.307 100.584 46.8538C100.648 45.6485 100.612 43.6276 100.974 42.1323C101.581 39.6038 102.152 38.6251 102.424 38.1448C102.578 37.8729 102.75 37.8276 102.759 38.1176C102.768 38.6976 102.796 40.4013 103.031 42.6941C103.213 44.3798 103.448 45.3766 103.62 45.6848C104.137 46.591 104.771 46.6363 105.279 46.6363C105.605 46.6363 106.294 46.5457 106.23 45.9748C106.203 45.6938 106.248 43.9629 106.865 41.4798C107.254 39.8576 107.907 38.3985 108.143 37.8548C108.233 37.6645 108.278 37.8185 108.278 37.8548C108.224 38.9604 108.115 42.6126 108.568 44.6154C109.185 47.316 110.97 47.6241 111.595 47.6241C112.928 47.6241 114.015 46.6091 114.378 43.9538C114.468 43.3195 114.332 42.821 113.943 42.821V42.821Z" fill="#262626"/>
</svg>
