<svg width="220" height="48" viewBox="0 0 220 48" fill="none" xmlns="http://www.w3.org/2000/svg">
<rect width="220" height="48" rx="24" fill="white"/>
<path d="M50 15L37.218 22.083" stroke="#262626" stroke-width="2" stroke-linejoin="round"/>
<path d="M39.698 32.334L50 15.001H30L37.218 22.084L39.698 32.334Z" stroke="#262626" stroke-width="2" stroke-linejoin="round"/>
<path d="M68.05 19.766V27.83H73.006V19.766H68.05ZM71.634 20.928V26.682H69.422V20.928H71.634ZM77.164 18.366V31.162H78.564V18.366H77.164ZM72.264 23.112V24.302H75.176V23.112H72.264ZM74.588 18.604V30.546H75.974V18.604H74.588ZM83.7709 19.416V21.516C83.7709 23.966 82.4549 26.43 80.4109 27.354L81.2929 28.572C83.5889 27.452 84.9749 24.61 84.9749 21.516V19.416H83.7709ZM84.0509 19.416V21.516C84.0509 24.498 85.4369 27.228 87.6909 28.292L88.5589 27.116C86.5429 26.22 85.2409 23.868 85.2409 21.516V19.416H84.0509ZM89.5809 18.352V31.176H91.0509V18.352H89.5809ZM96.6498 20.284V22.076C96.6498 24.26 95.3198 26.654 93.3458 27.564L94.1858 28.726C96.3838 27.676 97.8258 24.89 97.8258 22.076V20.284H96.6498ZM96.9578 20.284V22.076C96.9578 24.82 98.3998 27.41 100.626 28.404L101.438 27.242C99.4358 26.402 98.1198 24.19 98.1198 22.076V20.284H96.9578ZM93.8078 19.64V20.858H100.962V19.64H93.8078ZM102.46 18.366V31.162H103.93V18.366H102.46Z" fill="black"/>
</svg>
