<svg width="220" height="48" viewBox="0 0 220 48" fill="none" xmlns="http://www.w3.org/2000/svg">
<rect width="220" height="48" rx="24" fill="white"/>
<path d="M30 24V27.45C30 30.299 30.698 31.455 31.606 32.394C32.546 33.303 33.704 34.002 36.552 34.002H43.448C46.296 34.002 47.454 33.302 48.394 32.394C49.302 31.455 50 30.3 50 27.45V20.552C50 17.703 49.302 16.546 48.394 15.607C47.454 14.7 46.296 14 43.448 14H36.552C33.704 14 32.546 14.699 31.606 15.607C30.698 16.547 30 17.703 30 20.552V24Z" stroke="#262626" stroke-width="2" stroke-linecap="round" stroke-linejoin="round"/>
<path d="M34.545 24.001H45.455" stroke="#262626" stroke-width="2" stroke-linecap="round" stroke-linejoin="round"/>
<path d="M40.003 18.545V29.455" stroke="#262626" stroke-width="2" stroke-linecap="round" stroke-linejoin="round"/>
<path d="M68.092 19.472V25.506H74.07V19.472H68.092ZM72.628 20.648V24.344H69.534V20.648H72.628ZM76.156 18.366V27.718H77.626V18.366H76.156ZM77.192 22.174V23.378H79.432V22.174H77.192ZM69.534 29.72V30.91H78.144V29.72H69.534ZM69.534 26.822V30.28H71.004V26.822H69.534ZM80.5229 23.532V24.708H92.0869V23.532H80.5229ZM82.0069 21.488V22.664H90.7149V21.488H82.0069ZM82.0069 18.702V22.468H83.4629V19.878H90.5889V18.702H82.0069ZM81.8809 25.646V26.78H89.1889V27.76H81.8949V30.21H83.3509V28.824H90.6309V25.646H81.8809ZM81.8949 29.888V31.036H90.9949V29.888H81.8949ZM102.488 18.366V31.162H103.958V18.366H102.488ZM98.7358 19.724V19.976C98.7358 23.392 97.1818 25.926 93.4998 27.704L94.2698 28.88C98.6658 26.738 100.178 23.518 100.178 19.724H98.7358ZM94.1298 19.724V20.9H99.3938V19.724H94.1298Z" fill="black"/>
</svg>
