<svg width="220" height="48" viewBox="0 0 220 48" fill="none" xmlns="http://www.w3.org/2000/svg">
<rect width="220" height="48" rx="24" fill="white"/>
<path d="M44.792 15.904C46.1064 15.9767 47.3389 16.5659 48.2207 17.5433C49.1026 18.5207 49.5624 19.807 49.5 21.122C49.5 24.194 46.848 26.081 44.303 28.344C41.791 30.587 40.438 31.813 40 32.096C39.523 31.787 37.857 30.273 35.697 28.344C33.141 26.072 30.5 24.167 30.5 21.122C30.4376 19.807 30.8974 18.5207 31.7793 17.5433C32.6611 16.5659 33.8936 15.9767 35.208 15.904C35.9361 15.8819 36.6576 16.0492 37.3017 16.3894C37.9459 16.7296 38.4907 17.2312 38.883 17.845C39.723 19.02 39.863 19.608 40.003 19.608C40.143 19.608 40.281 19.02 41.113 17.842C41.5031 17.2253 42.0481 16.7218 42.6937 16.3817C43.3393 16.0416 44.0628 15.8769 44.792 15.904M44.792 13.904C43.8839 13.8749 42.981 14.0511 42.1504 14.4194C41.3199 14.7876 40.5831 15.3385 39.995 16.031C39.4074 15.3405 38.6721 14.7909 37.8435 14.4228C37.015 14.0546 36.1143 13.8773 35.208 13.904C33.3629 13.9762 31.6214 14.776 30.3643 16.1286C29.1073 17.4812 28.437 19.2765 28.5 21.122C28.5 24.732 31.05 26.949 33.515 29.092C33.798 29.338 34.084 29.586 34.368 29.839L35.395 30.757C36.515 31.8228 37.6893 32.8301 38.913 33.775C39.2368 33.9846 39.6143 34.0962 40 34.0962C40.3857 34.0962 40.7632 33.9846 41.087 33.775C42.3497 32.8013 43.56 31.7615 44.713 30.66L45.635 29.836C45.928 29.576 46.225 29.317 46.52 29.062C48.854 27.037 51.5 24.742 51.5 21.122C51.563 19.2765 50.8927 17.4812 49.6357 16.1286C48.3786 14.776 46.6371 13.9762 44.792 13.904V13.904Z" fill="#262626"/>
<path d="M76.156 18.366V24.82H77.626V18.366H76.156ZM77.01 20.984V22.188H79.418V20.984H77.01ZM69.366 25.38V26.528H76.184V27.606H69.38V30.434H70.836V28.684H77.626V25.38H69.366ZM69.38 29.846V31.008H78.046V29.846H69.38ZM71.158 18.786C69.226 18.786 67.812 19.976 67.812 21.656C67.812 23.336 69.226 24.526 71.158 24.526C73.09 24.526 74.504 23.336 74.504 21.656C74.504 19.976 73.09 18.786 71.158 18.786ZM71.158 19.976C72.278 19.976 73.09 20.648 73.09 21.656C73.09 22.678 72.278 23.35 71.158 23.35C70.052 23.35 69.226 22.678 69.226 21.656C69.226 20.648 70.052 19.976 71.158 19.976ZM89.5949 18.366V25.954H91.0649V18.366H89.5949ZM81.1809 24.232V25.436H82.2449C84.6949 25.436 86.4169 25.366 88.4329 25.03L88.2649 23.854C86.3049 24.176 84.6389 24.232 82.2449 24.232H81.1809ZM81.1529 19.122V20.298H85.5489V21.656H81.1809V24.946H82.6089V22.776H86.9909V19.122H81.1529ZM82.6929 26.598V31.008H91.0649V26.598H82.6929ZM89.6229 27.76V29.832H84.1349V27.76H89.6229Z" fill="black"/>
</svg>
