<svg width="220" height="48" viewBox="0 0 220 48" fill="none" xmlns="http://www.w3.org/2000/svg">
<rect width="220" height="48" rx="24" fill="white"/>
<path d="M50 35H43.999C43.7338 35 43.4794 34.8946 43.2919 34.7071C43.1044 34.5196 42.999 34.2652 42.999 34V28.545C43.0063 28.1469 42.9341 27.7513 42.7868 27.3814C42.6395 27.0115 42.4199 26.6746 42.141 26.3905C41.862 26.1064 41.5292 25.8807 41.162 25.7267C40.7949 25.5726 40.4007 25.4933 40.0025 25.4933C39.6043 25.4933 39.2101 25.5726 38.843 25.7267C38.4758 25.8807 38.143 26.1064 37.864 26.3905C37.5851 26.6746 37.3655 27.0115 37.2182 27.3814C37.0709 27.7513 36.9987 28.1469 37.006 28.545V34C37.006 34.2652 36.9006 34.5196 36.7131 34.7071C36.5256 34.8946 36.2712 35 36.006 35H30C29.7348 35 29.4804 34.8946 29.2929 34.7071C29.1054 34.5196 29 34.2652 29 34V23.543C29.0001 23.4076 29.0276 23.2737 29.0809 23.1493C29.1342 23.0248 29.2121 22.9125 29.31 22.819L39.31 13.276C39.4961 13.0989 39.7431 13.0002 40 13.0002C40.2569 13.0002 40.5039 13.0989 40.69 13.276L50.69 22.819C50.7879 22.9125 50.8658 23.0248 50.9191 23.1493C50.9724 23.2737 50.9999 23.4076 51 23.543V34C51 34.2652 50.8946 34.5196 50.7071 34.7071C50.5196 34.8946 50.2652 35 50 35Z" fill="#262626"/>
<path d="M69.016 27.312V31.008H77.794V27.312H69.016ZM76.366 28.418V29.902H70.458V28.418H76.366ZM68.218 19.346V20.48H78.564V19.346H68.218ZM73.412 20.9C70.724 20.9 69.212 21.516 69.212 22.72C69.212 23.91 70.724 24.526 73.412 24.526C76.1 24.526 77.612 23.91 77.612 22.72C77.612 21.516 76.1 20.9 73.412 20.9ZM73.412 21.908C75.148 21.908 76.044 22.174 76.044 22.72C76.044 23.252 75.148 23.532 73.412 23.532C71.69 23.532 70.78 23.252 70.78 22.72C70.78 22.174 71.69 21.908 73.412 21.908ZM72.684 18.226V20.116H74.14V18.226H72.684ZM67.63 25.338V26.486H79.194V25.338H67.63ZM72.684 24.176V25.954H74.14V24.176H72.684Z" fill="black"/>
</svg>
