<svg width="220" height="48" viewBox="0 0 220 48" fill="none" xmlns="http://www.w3.org/2000/svg">
<rect width="220" height="48" rx="24" fill="white"/>
<path d="M31 16H49" stroke="#262626" stroke-width="2" stroke-linecap="round" stroke-linejoin="round"/>
<path d="M31 24H49" stroke="#262626" stroke-width="2" stroke-linecap="round" stroke-linejoin="round"/>
<path d="M31 32H49" stroke="#262626" stroke-width="2" stroke-linecap="round" stroke-linejoin="round"/>
<path d="M68.26 26.836V28.054H69.268C71.648 28.054 73.188 27.984 74.98 27.648L74.826 26.458C73.104 26.78 71.592 26.836 69.268 26.836H68.26ZM68.26 19.542V27.298H69.73V20.732H74.07V19.542H68.26ZM76.8 18.366V31.19H78.27V18.366H76.8ZM73.37 22.902V24.106H77.416V22.902H73.37ZM83.6674 28.39V29.594H95.2594V28.39H83.6674ZM88.7074 25.478V28.712H90.1634V25.478H88.7074ZM84.9554 19.234V25.828H93.9154V19.234H92.4594V21.376H86.4254V19.234H84.9554ZM86.4254 22.538H92.4594V24.638H86.4254V22.538ZM105.632 18.366V31.162H107.102V18.366H105.632ZM101.88 19.724V19.976C101.88 23.392 100.326 25.926 96.6443 27.704L97.4143 28.88C101.81 26.738 103.322 23.518 103.322 19.724H101.88ZM97.2743 19.724V20.9H102.538V19.724H97.2743Z" fill="black"/>
</svg>
