<svg width="220" height="48" viewBox="0 0 220 48" fill="none" xmlns="http://www.w3.org/2000/svg">
<rect width="220" height="48" rx="24" fill="white"/>
<g clip-path="url(#clip0_1_23)">
<path d="M41.941 25.953L35.581 28.424L38.06 22.056L44.42 19.585L41.941 25.953Z" stroke="#262626" stroke-width="2" stroke-linecap="round" stroke-linejoin="round"/>
<path fill-rule="evenodd" clip-rule="evenodd" d="M38.06 22.056L41.949 25.945L35.581 28.424L38.06 22.056Z" fill="#262626"/>
<path d="M40.001 34.505C45.8 34.505 50.501 29.804 50.501 24.005C50.501 18.206 45.8 13.505 40.001 13.505C34.202 13.505 29.501 18.206 29.501 24.005C29.501 29.804 34.202 34.505 40.001 34.505Z" stroke="#262626" stroke-width="2" stroke-linecap="round" stroke-linejoin="round"/>
</g>
<path d="M68.162 24.162V25.338H69.184C71.774 25.338 73.272 25.282 75.008 24.974L74.854 23.812C73.16 24.12 71.718 24.162 69.184 24.162H68.162ZM68.162 19.136V24.666H69.632V20.312H74.084V19.136H68.162ZM69.17 21.628V22.776H73.832V21.628H69.17ZM69.464 26.5V31.008H77.626V26.5H69.464ZM76.184 27.648V29.832H70.906V27.648H76.184ZM76.156 18.366V25.87H77.626V18.366H76.156ZM77.22 21.46V22.678H79.432V21.46H77.22ZM83.0289 19.122V20.718C83.0289 22.174 82.1609 23.812 80.4389 24.582L81.2229 25.73C83.1969 24.848 84.1769 22.762 84.1769 20.718V19.122H83.0289ZM83.2809 19.122V20.718C83.2809 22.734 84.2329 24.596 86.1509 25.394L86.9209 24.274C85.2689 23.588 84.4429 22.16 84.4429 20.718V19.122H83.2809ZM89.9589 18.38V26.122H91.3449V18.38H89.9589ZM88.1249 21.6V22.804H90.3649V21.6H88.1249ZM87.2289 18.59V26.052H88.6009V18.59H87.2289ZM82.6789 26.752V27.942H89.8889V31.162H91.3449V26.752H82.6789ZM97.0363 23.924V25.114H97.8763C99.8643 25.114 101.096 25.058 102.566 24.792L102.426 23.602C101.012 23.868 99.8223 23.924 97.8763 23.924H97.0363ZM97.0363 19.108V24.792H98.4503V20.284H102.02V19.108H97.0363ZM98.0163 21.502V22.622H101.88V21.502H98.0163ZM105.982 18.38V25.632H107.368V18.38H105.982ZM104.19 21.362V22.566H106.43V21.362H104.19ZM103.196 18.618V25.548H104.568V18.618H103.196ZM98.8563 26.108V31.008H107.368V26.108H105.94V27.368H100.298V26.108H98.8563ZM100.298 28.502H105.94V29.818H100.298V28.502Z" fill="black"/>
<defs>
<clipPath id="clip0_1_23">
<rect width="24" height="24" fill="white" transform="translate(28 12)"/>
</clipPath>
</defs>
</svg>
